<svg width="32" height="33" viewBox="0 0 32 33" fill="none" xmlns="http://www.w3.org/2000/svg">
<path d="M11 11.5977C11 11.3324 11.1054 11.0781 11.2929 10.8905C11.4804 10.703 11.7348 10.5977 12 10.5977H21.3333C21.5985 10.5977 21.8529 10.703 22.0404 10.8905C22.228 11.0781 22.3333 11.3324 22.3333 11.5977C22.3333 11.8629 22.228 12.1172 22.0404 12.3048C21.8529 12.4923 21.5985 12.5977 21.3333 12.5977H12C11.7348 12.5977 11.4804 12.4923 11.2929 12.3048C11.1054 12.1172 11 11.8629 11 11.5977ZM12 14.5977C11.7348 14.5977 11.4804 14.703 11.2929 14.8906C11.1054 15.0781 11 15.3324 11 15.5977C11 15.8629 11.1054 16.1172 11.2929 16.3048C11.4804 16.4923 11.7348 16.5977 12 16.5977H18.6667C18.9319 16.5977 19.1862 16.4923 19.3738 16.3048C19.5613 16.1172 19.6667 15.8629 19.6667 15.5977C19.6667 15.3324 19.5613 15.0781 19.3738 14.8906C19.1862 14.703 18.9319 14.5977 18.6667 14.5977H12Z" fill="black"/>
<path fill-rule="evenodd" clip-rule="evenodd" d="M11.3333 5.26367C9.65363 5.26367 8.04272 5.93093 6.85499 7.11866C5.66726 8.30639 5 9.9173 5 11.597V24.9303C5 26.2564 5.52678 27.5282 6.46447 28.4659C7.40215 29.4036 8.67392 29.9303 10 29.9303H24.6667C25.2855 29.9303 25.879 29.6845 26.3166 29.2469C26.7542 28.8093 27 28.2158 27 27.597V7.59701C27 6.97817 26.7542 6.38467 26.3166 5.94709C25.879 5.5095 25.2855 5.26367 24.6667 5.26367H11.3333ZM25 19.9303V7.59701C25 7.5086 24.9649 7.42381 24.9024 7.3613C24.8399 7.29879 24.7551 7.26367 24.6667 7.26367H11.3333C10.1841 7.26367 9.08186 7.72022 8.2692 8.53288C7.45655 9.34553 7 10.4477 7 11.597V20.9303C7.86457 20.2795 8.91784 19.9284 10 19.9303H25ZM25 21.9303H10C9.20435 21.9303 8.44129 22.2464 7.87868 22.809C7.31607 23.3716 7 24.1347 7 24.9303C7 25.726 7.31607 26.489 7.87868 27.0517C8.44129 27.6143 9.20435 27.9303 10 27.9303H24.6667C24.7551 27.9303 24.8399 27.8952 24.9024 27.8327C24.9649 27.7702 25 27.6854 25 27.597V21.9303Z" fill="black"/>
</svg>
