<svg width="57" height="56" viewBox="0 0 57 56" fill="none" xmlns="http://www.w3.org/2000/svg">
<rect x="0.5" width="56" height="56" rx="28" fill="#FFE395"/>
<path d="M45.1673 35.9V15.7834C45.1673 13.7834 43.534 12.3 41.5507 12.4667H41.4507C37.9507 12.7667 32.634 14.55 29.6673 16.4167L29.384 16.6C28.9007 16.9 28.1007 16.9 27.6173 16.6L27.2007 16.35C24.234 14.5 18.934 12.7334 15.434 12.45C13.4507 12.2834 11.834 13.7834 11.834 15.7667V35.9C11.834 37.5 13.134 39 14.734 39.2L15.2173 39.2667C18.834 39.75 24.4173 41.5834 27.6173 43.3334L27.684 43.3667C28.134 43.6167 28.8507 43.6167 29.284 43.3667C32.484 41.6 38.084 39.75 41.7173 39.2667L42.2673 39.2C43.8673 39 45.1673 37.5 45.1673 35.9Z" stroke="#3A86FF" stroke-width="2" stroke-linecap="round" stroke-linejoin="round"/>
<path d="M28.5 17.15V42.15" stroke="#3A86FF" stroke-width="1.5" stroke-linecap="round" stroke-linejoin="round"/>
<path d="M21.416 22.15H17.666" stroke="#3A86FF" stroke-width="1.5" stroke-linecap="round" stroke-linejoin="round"/>
<path d="M22.666 27.15H17.666" stroke="#3A86FF" stroke-width="1.5" stroke-linecap="round" stroke-linejoin="round"/>
</svg>
