<svg width="24" height="24" viewBox="0 0 24 24" fill="none" xmlns="http://www.w3.org/2000/svg">
<rect width="24" height="24" fill="#787878"/>
<path d="M-238 -659C-238 -660.105 -237.105 -661 -236 -661H19908C19909.1 -661 19910 -660.105 19910 -659V1313C19910 1314.1 19909.1 1315 19908 1315H-236C-237.105 1315 -238 1314.1 -238 1313V-659Z" fill="#3A3A3A"/>
<path d="M-236 -661V-660H19908V-661V-662H-236V-661ZM19910 -659H19909V1313H19910H19911V-659H19910ZM19908 1315V1314H-236V1315V1316H19908V1315ZM-238 1313H-237V-659H-238H-239V1313H-238ZM-236 1315V1314C-236.552 1314 -237 1313.55 -237 1313H-238H-239C-239 1314.66 -237.658 1316 -236 1316V1315ZM19910 1313H19909C19909 1313.55 19908.6 1314 19908 1314V1315V1316C19909.7 1316 19911 1314.66 19911 1313H19910ZM19908 -661V-660C19908.6 -660 19909 -659.553 19909 -659H19910H19911C19911 -660.657 19909.7 -662 19908 -662V-661ZM-236 -661V-662C-237.657 -662 -239 -660.657 -239 -659H-238H-237C-237 -659.552 -236.552 -660 -236 -660V-661Z" fill="white" fill-opacity="0.1"/>
<rect width="1440" height="1024" transform="translate(-48 -338)" fill="#F8F8F8"/>
<rect width="233" height="1024" transform="translate(-48 -338)" fill="white"/>
<path d="M12 3C17.1039 3 21.25 7.14614 21.25 12.25C21.25 17.3539 17.1039 21.5 12 21.5C6.89614 21.5 2.75 17.3539 2.75 12.25C2.75 7.14614 6.89614 3 12 3ZM12 3.5C7.16386 3.5 3.25 7.41386 3.25 12.25C3.25 17.0861 7.16386 21 12 21C16.8361 21 20.75 17.0861 20.75 12.25C20.75 7.41386 16.8361 3.5 12 3.5ZM12 6C12.9648 6 13.9083 6.2193 14.7686 6.64062L15.1318 6.83398C15.9579 7.32099 16.6633 7.9852 17.1992 8.77637L17.4189 9.12305C17.9638 10.0762 18.25 11.1588 18.25 12.25C18.25 13.3412 17.9638 14.4238 17.4189 15.377C16.8631 16.3217 16.0761 17.1094 15.1318 17.666C14.1776 18.2126 13.0929 18.5 12 18.5C10.9067 18.5 9.82275 18.2124 8.87988 17.667H8.88086C8.04865 17.1848 7.34015 16.5185 6.80957 15.7207L6.59375 15.3711L6.59082 15.3672L6.57129 15.3232C6.56608 15.3082 6.56174 15.2922 6.55957 15.2764C6.55531 15.2448 6.55728 15.2125 6.56543 15.1816C6.57364 15.1506 6.58792 15.1212 6.60742 15.0957C6.61712 15.083 6.6287 15.072 6.64062 15.0615L6.67969 15.0332L11.5 12.2529L11.75 12.1084V6.25C11.75 6.11614 11.8661 6 12 6ZM12.25 12.25C12.25 12.3246 12.2213 12.3875 12.1797 12.4297L12.1338 12.4648L12.1299 12.4668L7.62988 15.0674L7.13086 15.3555L7.48633 15.8086C8.02268 16.4929 8.70807 17.046 9.49023 17.4258C10.2722 17.8054 11.1308 18.0008 12 17.999C12.8806 17.999 13.7533 17.799 14.5449 17.4111L14.8789 17.2334L14.8818 17.2324C15.7462 16.7291 16.4776 15.9964 16.9814 15.1211L16.9824 15.1221C17.4881 14.2537 17.75 13.256 17.75 12.25C17.75 11.244 17.4881 10.2463 16.9824 9.37793H16.9814C16.5407 8.61244 15.925 7.95685 15.1992 7.46777L14.8818 7.26758L14.877 7.26562L14.6367 7.13574C14.0684 6.84663 13.4549 6.6511 12.8252 6.55566L12.25 6.46875V12.25Z" fill="black" stroke="#737373"/>
</svg>
