<svg width="13" height="20" viewBox="0 0 13 20" fill="none" xmlns="http://www.w3.org/2000/svg">
<path fill-rule="evenodd" clip-rule="evenodd" d="M4.988 1.80753C5.97244 0.822928 7.30768 0.269696 8.7 0.269531H11.4C11.5989 0.269531 11.7897 0.348549 11.9303 0.489201C12.071 0.629853 12.15 0.820619 12.15 1.01953V4.61953C12.15 4.81844 12.071 5.00921 11.9303 5.14986C11.7897 5.29051 11.5989 5.36953 11.4 5.36953H8.7C8.6803 5.36953 8.6608 5.37341 8.6426 5.38095C8.6244 5.38849 8.60786 5.39954 8.59393 5.41347C8.58001 5.42739 8.56896 5.44393 8.56142 5.46213C8.55388 5.48033 8.55 5.49983 8.55 5.51953V7.46953H11.4C11.514 7.46947 11.6266 7.4954 11.729 7.54536C11.8315 7.59532 11.9213 7.66799 11.9915 7.75785C12.0617 7.8477 12.1104 7.95238 12.1341 8.06392C12.1578 8.17546 12.1557 8.29092 12.128 8.40153L11.228 12.0015C11.1874 12.1638 11.0937 12.3079 10.9618 12.4108C10.8299 12.5138 10.6673 12.5696 10.5 12.5695H8.55V19.0195C8.55 19.2184 8.47098 19.4092 8.33033 19.5499C8.18968 19.6905 7.99891 19.7695 7.8 19.7695H4.2C4.00109 19.7695 3.81032 19.6905 3.66967 19.5499C3.52902 19.4092 3.45 19.2184 3.45 19.0195V12.5695H1.5C1.30109 12.5695 1.11032 12.4905 0.96967 12.3499C0.829018 12.2092 0.75 12.0184 0.75 11.8195V8.21953C0.75 8.12104 0.769399 8.02351 0.80709 7.93252C0.844781 7.84152 0.900026 7.75885 0.96967 7.6892C1.03931 7.61956 1.12199 7.56431 1.21299 7.52662C1.30398 7.48893 1.40151 7.46953 1.5 7.46953H3.45V5.51953C3.45016 4.12721 4.0034 2.79197 4.988 1.80753ZM8.7 1.76953C7.70544 1.76953 6.75161 2.16462 6.04835 2.86788C5.34509 3.57114 4.95 4.52497 4.95 5.51953V8.21953C4.95 8.41844 4.87098 8.60921 4.73033 8.74986C4.58968 8.89051 4.39891 8.96953 4.2 8.96953H2.25V11.0695H4.2C4.39891 11.0695 4.58968 11.1485 4.73033 11.2892C4.87098 11.4299 4.95 11.6206 4.95 11.8195V18.2695H7.05V11.8195C7.05 11.6206 7.12902 11.4299 7.26967 11.2892C7.41032 11.1485 7.60109 11.0695 7.8 11.0695H9.914L10.439 8.96953H7.8C7.60109 8.96953 7.41032 8.89051 7.26967 8.74986C7.12902 8.60921 7.05 8.41844 7.05 8.21953V5.51953C7.05 5.08192 7.22384 4.66224 7.53327 4.35281C7.84271 4.04337 8.26239 3.86953 8.7 3.86953H10.65V1.76953H8.7Z" fill="#8EC6FF"/>
</svg>
