<svg width="25" height="25" viewBox="0 0 25 25" fill="none" xmlns="http://www.w3.org/2000/svg">
<path d="M8.3 2.01953H16.7C19.9 2.01953 22.5 4.61953 22.5 7.81953V16.2195C22.5 17.7578 21.8889 19.233 20.8012 20.3208C19.7135 21.4085 18.2383 22.0195 16.7 22.0195H8.3C5.1 22.0195 2.5 19.4195 2.5 16.2195V7.81953C2.5 6.28128 3.11107 4.80602 4.19878 3.71831C5.28649 2.6306 6.76174 2.01953 8.3 2.01953ZM8.1 4.01953C7.14522 4.01953 6.22955 4.39882 5.55442 5.07395C4.87928 5.74908 4.5 6.66475 4.5 7.61953V16.4195C4.5 18.4095 6.11 20.0195 8.1 20.0195H16.9C17.8548 20.0195 18.7705 19.6402 19.4456 18.9651C20.1207 18.29 20.5 17.3743 20.5 16.4195V7.61953C20.5 5.62953 18.89 4.01953 16.9 4.01953H8.1ZM17.75 5.51953C18.0815 5.51953 18.3995 5.65123 18.6339 5.88565C18.8683 6.12007 19 6.43801 19 6.76953C19 7.10105 18.8683 7.41899 18.6339 7.65341C18.3995 7.88784 18.0815 8.01953 17.75 8.01953C17.4185 8.01953 17.1005 7.88784 16.8661 7.65341C16.6317 7.41899 16.5 7.10105 16.5 6.76953C16.5 6.43801 16.6317 6.12007 16.8661 5.88565C17.1005 5.65123 17.4185 5.51953 17.75 5.51953ZM12.5 7.01953C13.8261 7.01953 15.0979 7.54632 16.0355 8.484C16.9732 9.42168 17.5 10.6934 17.5 12.0195C17.5 13.3456 16.9732 14.6174 16.0355 15.5551C15.0979 16.4927 13.8261 17.0195 12.5 17.0195C11.1739 17.0195 9.90215 16.4927 8.96447 15.5551C8.02678 14.6174 7.5 13.3456 7.5 12.0195C7.5 10.6934 8.02678 9.42168 8.96447 8.484C9.90215 7.54632 11.1739 7.01953 12.5 7.01953ZM12.5 9.01953C11.7044 9.01953 10.9413 9.3356 10.3787 9.89821C9.81607 10.4608 9.5 11.2239 9.5 12.0195C9.5 12.8152 9.81607 13.5782 10.3787 14.1409C10.9413 14.7035 11.7044 15.0195 12.5 15.0195C13.2956 15.0195 14.0587 14.7035 14.6213 14.1409C15.1839 13.5782 15.5 12.8152 15.5 12.0195C15.5 11.2239 15.1839 10.4608 14.6213 9.89821C14.0587 9.3356 13.2956 9.01953 12.5 9.01953Z" fill="#8EC6FF"/>
</svg>
