<svg width="25" height="25" viewBox="0 0 25 25" fill="none" xmlns="http://www.w3.org/2000/svg">
<path fill-rule="evenodd" clip-rule="evenodd" d="M5.5 1.26953C4.77065 1.26953 4.07118 1.55926 3.55546 2.07499C3.03973 2.59071 2.75 3.29019 2.75 4.01953C2.75 4.74888 3.03973 5.44835 3.55546 5.96408C4.07118 6.4798 4.77065 6.76953 5.5 6.76953C6.22935 6.76953 6.92882 6.4798 7.44454 5.96408C7.96027 5.44835 8.25 4.74888 8.25 4.01953C8.25 3.29019 7.96027 2.59071 7.44454 2.07499C6.92882 1.55926 6.22935 1.26953 5.5 1.26953ZM4.25 4.01953C4.25 3.68801 4.3817 3.37007 4.61612 3.13565C4.85054 2.90123 5.16848 2.76953 5.5 2.76953C5.83152 2.76953 6.14946 2.90123 6.38388 3.13565C6.6183 3.37007 6.75 3.68801 6.75 4.01953C6.75 4.35105 6.6183 4.66899 6.38388 4.90341C6.14946 5.13784 5.83152 5.26953 5.5 5.26953C5.16848 5.26953 4.85054 5.13784 4.61612 4.90341C4.3817 4.66899 4.25 4.35105 4.25 4.01953ZM2.75 8.01953C2.75 7.82062 2.82902 7.62985 2.96967 7.4892C3.11032 7.34855 3.30109 7.26953 3.5 7.26953H7.5C7.69891 7.26953 7.88968 7.34855 8.03033 7.4892C8.17098 7.62985 8.25 7.82062 8.25 8.01953V21.0195C8.25 21.2184 8.17098 21.4092 8.03033 21.5499C7.88968 21.6905 7.69891 21.7695 7.5 21.7695H3.5C3.30109 21.7695 3.11032 21.6905 2.96967 21.5499C2.82902 21.4092 2.75 21.2184 2.75 21.0195V8.01953ZM4.25 8.76953V20.2695H6.75V8.76953H4.25ZM9.75 8.01953C9.75 7.82062 9.82902 7.62985 9.96967 7.4892C10.1103 7.34855 10.3011 7.26953 10.5 7.26953H14.5C14.6989 7.26953 14.8897 7.34855 15.0303 7.4892C15.171 7.62985 15.25 7.82062 15.25 8.01953V8.45353L15.685 8.26653C16.4351 7.94613 17.2307 7.74536 18.043 7.67153C20.818 7.41953 23.25 9.59953 23.25 12.3995V21.0195C23.25 21.2184 23.171 21.4092 23.0303 21.5499C22.8897 21.6905 22.6989 21.7695 22.5 21.7695H18.5C18.3011 21.7695 18.1103 21.6905 17.9697 21.5499C17.829 21.4092 17.75 21.2184 17.75 21.0195V14.0195C17.75 13.688 17.6183 13.3701 17.3839 13.1356C17.1495 12.9012 16.8315 12.7695 16.5 12.7695C16.1685 12.7695 15.8505 12.9012 15.6161 13.1356C15.3817 13.3701 15.25 13.688 15.25 14.0195V21.0195C15.25 21.2184 15.171 21.4092 15.0303 21.5499C14.8897 21.6905 14.6989 21.7695 14.5 21.7695H10.5C10.3011 21.7695 10.1103 21.6905 9.96967 21.5499C9.82902 21.4092 9.75 21.2184 9.75 21.0195V8.01953ZM11.25 8.76953V20.2695H13.75V14.0195C13.75 13.2902 14.0397 12.5907 14.5555 12.075C15.0712 11.5593 15.7707 11.2695 16.5 11.2695C17.2293 11.2695 17.9288 11.5593 18.4445 12.075C18.9603 12.5907 19.25 13.2902 19.25 14.0195V20.2695H21.75V12.3995C21.75 10.4955 20.089 8.99153 18.18 9.16553C17.5241 9.22503 16.8817 9.387 16.276 9.64553L14.796 10.2805C14.6818 10.3296 14.5573 10.3495 14.4336 10.3385C14.3098 10.3275 14.1907 10.2859 14.087 10.2175C13.9833 10.1491 13.8982 10.056 13.8394 9.94653C13.7806 9.8371 13.7499 9.71477 13.75 9.59053V8.76953H11.25Z" fill="#8EC6FF"/>
</svg>
