<svg width="25" height="25" viewBox="0 0 25 25" fill="none" xmlns="http://www.w3.org/2000/svg">
<path d="M13.5819 10.7315L8.79587 4.02153C8.74037 3.94357 8.66702 3.88002 8.58195 3.83619C8.49689 3.79235 8.40257 3.76949 8.30687 3.76953H5.78087C5.67077 3.76967 5.56283 3.80011 5.46888 3.8575C5.37492 3.91489 5.29856 3.99703 5.24817 4.09492C5.19778 4.19281 5.1753 4.30268 5.18318 4.4125C5.19107 4.52231 5.22901 4.62784 5.29287 4.71753L11.4199 13.3075M13.5819 10.7315L19.7089 19.3215C19.7727 19.4112 19.8107 19.5168 19.8186 19.6266C19.8264 19.7364 19.804 19.8463 19.7536 19.9441C19.7032 20.042 19.6268 20.1242 19.5329 20.1816C19.4389 20.239 19.331 20.2694 19.2209 20.2695H16.6949C16.5992 20.2696 16.5049 20.2467 16.4198 20.2029C16.3347 20.159 16.2614 20.0955 16.2059 20.0175L11.4199 13.3075M13.5819 10.7315L19.4239 3.76953M11.4199 13.3075L5.57787 20.2695" stroke="#8EC6FF" stroke-width="1.5" stroke-linecap="round" stroke-linejoin="round"/>
</svg>
